<mxfile host="app.diagrams.net" modified="2020-12-21T16:21:56.431Z" agent="5.0 (Windows NT 10.0; Win64; x64) AppleWebKit/537.36 (KHTML, like Gecko) Chrome/87.0.4280.88 Safari/537.36 Edg/87.0.664.66" etag="WFF0iVoy2ykSRB3b7eiP" version="14.1.1" type="github">
  <diagram id="R2lEEEUBdFMjLlhIrx00" name="Page-1">
    <mxGraphModel dx="1422" dy="762" grid="1" gridSize="10" guides="1" tooltips="1" connect="1" arrows="1" fold="1" page="1" pageScale="1" pageWidth="827" pageHeight="1169" background="#DAD2D8" math="0" shadow="0" extFonts="Permanent Marker^https://fonts.googleapis.com/css?family=Permanent+Marker">
      <root>
        <mxCell id="0" />
        <mxCell id="1" parent="0" />
        <mxCell id="1R20_Fz8d9oRuQxPapqD-1" value="用户" style="whiteSpace=wrap;html=1;align=center;fillColor=#FAE5C7;strokeColor=#0F8B8D;fontColor=#143642;" parent="1" vertex="1">
          <mxGeometry x="480" y="230" width="100" height="40" as="geometry" />
        </mxCell>
        <mxCell id="1R20_Fz8d9oRuQxPapqD-3" value="Figure" style="whiteSpace=wrap;html=1;align=center;fillColor=#FAE5C7;strokeColor=#0F8B8D;fontColor=#143642;" parent="1" vertex="1">
          <mxGeometry x="335" y="660" width="100" height="40" as="geometry" />
        </mxCell>
        <mxCell id="1R20_Fz8d9oRuQxPapqD-4" value="商店" style="whiteSpace=wrap;html=1;align=center;fillColor=#FAE5C7;strokeColor=#0F8B8D;fontColor=#143642;" parent="1" vertex="1">
          <mxGeometry x="600" y="360" width="100" height="40" as="geometry" />
        </mxCell>
        <mxCell id="1R20_Fz8d9oRuQxPapqD-5" value="公司" style="whiteSpace=wrap;html=1;align=center;glass=0;fillColor=#FAE5C7;strokeColor=#0F8B8D;fontColor=#143642;" parent="1" vertex="1">
          <mxGeometry x="500" y="745" width="100" height="40" as="geometry" />
        </mxCell>
        <mxCell id="1R20_Fz8d9oRuQxPapqD-7" value="员工" style="whiteSpace=wrap;html=1;align=center;fillColor=#FAE5C7;strokeColor=#0F8B8D;fontColor=#143642;" parent="1" vertex="1">
          <mxGeometry x="335" y="820" width="100" height="40" as="geometry" />
        </mxCell>
        <mxCell id="1R20_Fz8d9oRuQxPapqD-9" value="标签" style="whiteSpace=wrap;html=1;align=center;fillColor=#FAE5C7;strokeColor=#0F8B8D;fontColor=#143642;" parent="1" vertex="1">
          <mxGeometry x="9.68" y="630" width="100" height="40" as="geometry" />
        </mxCell>
        <mxCell id="1R20_Fz8d9oRuQxPapqD-11" value="&lt;span style=&quot;color: rgb(51 , 51 , 51) ; font-family: &amp;#34;helvetica neue&amp;#34; , &amp;#34;helvetica&amp;#34; , &amp;#34;arial&amp;#34; , &amp;#34;hiragino sans gb&amp;#34; , &amp;#34;hiragino sans gb w3&amp;#34; , &amp;#34;microsoft yahei ui&amp;#34; , &amp;#34;microsoft yahei&amp;#34; , sans-serif ; font-size: 13px ; text-align: left&quot;&gt;角色&lt;/span&gt;" style="whiteSpace=wrap;html=1;align=center;fillColor=#FAE5C7;strokeColor=#0F8B8D;fontColor=#143642;" parent="1" vertex="1">
          <mxGeometry x="169.55" y="770" width="100" height="40" as="geometry" />
        </mxCell>
        <mxCell id="1R20_Fz8d9oRuQxPapqD-13" value="&lt;span style=&quot;color: rgb(51 , 51 , 51) ; font-family: &amp;#34;helvetica neue&amp;#34; , &amp;#34;helvetica&amp;#34; , &amp;#34;arial&amp;#34; , &amp;#34;hiragino sans gb&amp;#34; , &amp;#34;hiragino sans gb w3&amp;#34; , &amp;#34;microsoft yahei ui&amp;#34; , &amp;#34;microsoft yahei&amp;#34; , sans-serif ; font-size: 13px ; text-align: left&quot;&gt;属性&lt;/span&gt;" style="whiteSpace=wrap;html=1;align=center;fillColor=#FAE5C7;strokeColor=#0F8B8D;fontColor=#143642;" parent="1" vertex="1">
          <mxGeometry x="169.67999999999998" y="560" width="100" height="40" as="geometry" />
        </mxCell>
        <mxCell id="1R20_Fz8d9oRuQxPapqD-16" value="&lt;span style=&quot;color: rgb(51 , 51 , 51) ; font-family: &amp;#34;helvetica neue&amp;#34; , &amp;#34;helvetica&amp;#34; , &amp;#34;arial&amp;#34; , &amp;#34;hiragino sans gb&amp;#34; , &amp;#34;hiragino sans gb w3&amp;#34; , &amp;#34;microsoft yahei ui&amp;#34; , &amp;#34;microsoft yahei&amp;#34; , sans-serif ; font-size: 13px ; text-align: left&quot;&gt;评论&lt;/span&gt;" style="whiteSpace=wrap;html=1;align=center;fillColor=#FAE5C7;strokeColor=#0F8B8D;fontColor=#143642;" parent="1" vertex="1">
          <mxGeometry x="335" y="360" width="100" height="40" as="geometry" />
        </mxCell>
        <mxCell id="SKenWi33ArXRwIdqclE3-1" value="组成" style="shape=rhombus;perimeter=rhombusPerimeter;whiteSpace=wrap;html=1;align=center;fillColor=#FAE5C7;strokeColor=#0F8B8D;fontColor=#143642;" parent="1" vertex="1">
          <mxGeometry x="325" y="185" width="120" height="60" as="geometry" />
        </mxCell>
        <mxCell id="SKenWi33ArXRwIdqclE3-4" value="" style="endArrow=none;html=1;rounded=0;exitX=0;exitY=0.5;exitDx=0;exitDy=0;entryX=1;entryY=0.5;entryDx=0;entryDy=0;labelBackgroundColor=#DAD2D8;strokeColor=#A8201A;fontColor=#143642;" parent="1" source="1R20_Fz8d9oRuQxPapqD-1" target="SKenWi33ArXRwIdqclE3-1" edge="1">
          <mxGeometry relative="1" as="geometry">
            <mxPoint x="400" y="190" as="sourcePoint" />
            <mxPoint x="560" y="190" as="targetPoint" />
          </mxGeometry>
        </mxCell>
        <mxCell id="SKenWi33ArXRwIdqclE3-5" value="N" style="resizable=0;html=1;align=right;verticalAlign=bottom;fillColor=#FAE5C7;strokeColor=#0F8B8D;fontColor=#143642;" parent="SKenWi33ArXRwIdqclE3-4" connectable="0" vertex="1">
          <mxGeometry x="1" relative="1" as="geometry" />
        </mxCell>
        <mxCell id="SKenWi33ArXRwIdqclE3-37" value="发表" style="shape=rhombus;perimeter=rhombusPerimeter;whiteSpace=wrap;html=1;align=center;fillColor=#FAE5C7;strokeColor=#0F8B8D;fontColor=#143642;" parent="1" vertex="1">
          <mxGeometry x="325" y="270" width="120" height="60" as="geometry" />
        </mxCell>
        <mxCell id="SKenWi33ArXRwIdqclE3-39" value="" style="endArrow=none;html=1;rounded=0;exitX=0;exitY=0.5;exitDx=0;exitDy=0;entryX=1;entryY=0.5;entryDx=0;entryDy=0;labelBackgroundColor=#DAD2D8;strokeColor=#A8201A;fontColor=#143642;" parent="1" source="1R20_Fz8d9oRuQxPapqD-1" target="SKenWi33ArXRwIdqclE3-37" edge="1">
          <mxGeometry relative="1" as="geometry">
            <mxPoint x="320" y="250" as="sourcePoint" />
            <mxPoint x="480" y="250" as="targetPoint" />
          </mxGeometry>
        </mxCell>
        <mxCell id="SKenWi33ArXRwIdqclE3-40" value="N" style="resizable=0;html=1;align=right;verticalAlign=bottom;fillColor=#FAE5C7;strokeColor=#0F8B8D;fontColor=#143642;" parent="SKenWi33ArXRwIdqclE3-39" connectable="0" vertex="1">
          <mxGeometry x="1" relative="1" as="geometry" />
        </mxCell>
        <mxCell id="SKenWi33ArXRwIdqclE3-41" value="" style="endArrow=none;html=1;rounded=0;entryX=0.5;entryY=1;entryDx=0;entryDy=0;exitX=0.5;exitY=0;exitDx=0;exitDy=0;labelBackgroundColor=#DAD2D8;strokeColor=#A8201A;fontColor=#143642;" parent="1" source="1R20_Fz8d9oRuQxPapqD-16" target="SKenWi33ArXRwIdqclE3-37" edge="1">
          <mxGeometry relative="1" as="geometry">
            <mxPoint x="440" y="340" as="sourcePoint" />
            <mxPoint x="600" y="340" as="targetPoint" />
          </mxGeometry>
        </mxCell>
        <mxCell id="SKenWi33ArXRwIdqclE3-42" value="N" style="resizable=0;html=1;align=right;verticalAlign=bottom;fillColor=#FAE5C7;strokeColor=#0F8B8D;fontColor=#143642;" parent="SKenWi33ArXRwIdqclE3-41" connectable="0" vertex="1">
          <mxGeometry x="1" relative="1" as="geometry" />
        </mxCell>
        <mxCell id="SKenWi33ArXRwIdqclE3-43" value="展示" style="shape=rhombus;perimeter=rhombusPerimeter;whiteSpace=wrap;html=1;align=center;glass=0;fillColor=#FAE5C7;strokeColor=#0F8B8D;fontColor=#143642;" parent="1" vertex="1">
          <mxGeometry x="325" y="440" width="120" height="60" as="geometry" />
        </mxCell>
        <mxCell id="SKenWi33ArXRwIdqclE3-44" value="" style="endArrow=none;html=1;rounded=0;exitX=0.5;exitY=1;exitDx=0;exitDy=0;entryX=0.5;entryY=0;entryDx=0;entryDy=0;labelBackgroundColor=#DAD2D8;strokeColor=#A8201A;fontColor=#143642;" parent="1" source="1R20_Fz8d9oRuQxPapqD-16" target="SKenWi33ArXRwIdqclE3-43" edge="1">
          <mxGeometry relative="1" as="geometry">
            <mxPoint x="410" y="420" as="sourcePoint" />
            <mxPoint x="570" y="420" as="targetPoint" />
          </mxGeometry>
        </mxCell>
        <mxCell id="SKenWi33ArXRwIdqclE3-45" value="N" style="resizable=0;html=1;align=right;verticalAlign=bottom;fillColor=#FAE5C7;strokeColor=#0F8B8D;fontColor=#143642;" parent="SKenWi33ArXRwIdqclE3-44" connectable="0" vertex="1">
          <mxGeometry x="1" relative="1" as="geometry" />
        </mxCell>
        <mxCell id="SKenWi33ArXRwIdqclE3-48" value="" style="endArrow=none;html=1;rounded=0;entryX=0.5;entryY=1;entryDx=0;entryDy=0;exitX=0.5;exitY=0;exitDx=0;exitDy=0;labelBackgroundColor=#DAD2D8;strokeColor=#A8201A;fontColor=#143642;" parent="1" source="1R20_Fz8d9oRuQxPapqD-3" target="SKenWi33ArXRwIdqclE3-43" edge="1">
          <mxGeometry relative="1" as="geometry">
            <mxPoint x="420" y="540" as="sourcePoint" />
            <mxPoint x="580" y="540" as="targetPoint" />
          </mxGeometry>
        </mxCell>
        <mxCell id="SKenWi33ArXRwIdqclE3-49" value="N" style="resizable=0;html=1;align=right;verticalAlign=bottom;fillColor=#FAE5C7;strokeColor=#0F8B8D;fontColor=#143642;" parent="SKenWi33ArXRwIdqclE3-48" connectable="0" vertex="1">
          <mxGeometry x="1" relative="1" as="geometry" />
        </mxCell>
        <mxCell id="SKenWi33ArXRwIdqclE3-50" value="系列" style="whiteSpace=wrap;html=1;align=center;glass=0;fillColor=#FAE5C7;strokeColor=#0F8B8D;fontColor=#143642;" parent="1" vertex="1">
          <mxGeometry x="9.55" y="700" width="100" height="40" as="geometry" />
        </mxCell>
        <mxCell id="SKenWi33ArXRwIdqclE3-53" value="入驻" style="shape=rhombus;perimeter=rhombusPerimeter;whiteSpace=wrap;html=1;align=center;glass=0;fillColor=#FAE5C7;strokeColor=#0F8B8D;fontColor=#143642;" parent="1" vertex="1">
          <mxGeometry x="590" y="250" width="120" height="60" as="geometry" />
        </mxCell>
        <mxCell id="SKenWi33ArXRwIdqclE3-54" value="" style="endArrow=none;html=1;rounded=0;exitX=1;exitY=0.5;exitDx=0;exitDy=0;entryX=0.5;entryY=0;entryDx=0;entryDy=0;labelBackgroundColor=#DAD2D8;strokeColor=#A8201A;fontColor=#143642;" parent="1" source="1R20_Fz8d9oRuQxPapqD-1" target="SKenWi33ArXRwIdqclE3-53" edge="1">
          <mxGeometry relative="1" as="geometry">
            <mxPoint x="450" y="260" as="sourcePoint" />
            <mxPoint x="610" y="260" as="targetPoint" />
          </mxGeometry>
        </mxCell>
        <mxCell id="SKenWi33ArXRwIdqclE3-55" value="1" style="resizable=0;html=1;align=right;verticalAlign=bottom;fillColor=#FAE5C7;strokeColor=#0F8B8D;fontColor=#143642;" parent="SKenWi33ArXRwIdqclE3-54" connectable="0" vertex="1">
          <mxGeometry x="1" relative="1" as="geometry" />
        </mxCell>
        <mxCell id="SKenWi33ArXRwIdqclE3-56" value="" style="endArrow=none;html=1;rounded=0;entryX=0.5;entryY=1;entryDx=0;entryDy=0;exitX=0.5;exitY=0;exitDx=0;exitDy=0;labelBackgroundColor=#DAD2D8;strokeColor=#A8201A;fontColor=#143642;" parent="1" source="1R20_Fz8d9oRuQxPapqD-4" target="SKenWi33ArXRwIdqclE3-53" edge="1">
          <mxGeometry relative="1" as="geometry">
            <mxPoint x="520" y="410" as="sourcePoint" />
            <mxPoint x="680" y="410" as="targetPoint" />
          </mxGeometry>
        </mxCell>
        <mxCell id="SKenWi33ArXRwIdqclE3-57" value="1" style="resizable=0;html=1;align=right;verticalAlign=bottom;fillColor=#FAE5C7;strokeColor=#0F8B8D;fontColor=#143642;" parent="SKenWi33ArXRwIdqclE3-56" connectable="0" vertex="1">
          <mxGeometry x="1" relative="1" as="geometry" />
        </mxCell>
        <mxCell id="SKenWi33ArXRwIdqclE3-58" value="&lt;span style=&quot;color: rgb(51 , 51 , 51) ; font-family: &amp;#34;helvetica neue&amp;#34; , &amp;#34;helvetica&amp;#34; , &amp;#34;arial&amp;#34; , &amp;#34;hiragino sans gb&amp;#34; , &amp;#34;hiragino sans gb w3&amp;#34; , &amp;#34;microsoft yahei ui&amp;#34; , &amp;#34;microsoft yahei&amp;#34; , sans-serif ; font-size: 13px ; text-align: left&quot;&gt;报价&lt;/span&gt;" style="whiteSpace=wrap;html=1;align=center;glass=0;fillColor=#FAE5C7;strokeColor=#0F8B8D;fontColor=#143642;" parent="1" vertex="1">
          <mxGeometry x="600" y="520" width="100" height="40" as="geometry" />
        </mxCell>
        <mxCell id="SKenWi33ArXRwIdqclE3-74" value="制作/发行" style="shape=rhombus;perimeter=rhombusPerimeter;whiteSpace=wrap;html=1;align=center;glass=0;fillColor=#FAE5C7;strokeColor=#0F8B8D;fontColor=#143642;" parent="1" vertex="1">
          <mxGeometry x="490" y="650" width="120" height="60" as="geometry" />
        </mxCell>
        <mxCell id="SKenWi33ArXRwIdqclE3-80" value="" style="endArrow=none;html=1;rounded=0;exitX=1;exitY=0.5;exitDx=0;exitDy=0;entryX=0;entryY=0.5;entryDx=0;entryDy=0;labelBackgroundColor=#DAD2D8;strokeColor=#A8201A;fontColor=#143642;" parent="1" source="1R20_Fz8d9oRuQxPapqD-3" target="SKenWi33ArXRwIdqclE3-74" edge="1">
          <mxGeometry relative="1" as="geometry">
            <mxPoint x="390" y="750" as="sourcePoint" />
            <mxPoint x="550" y="750" as="targetPoint" />
          </mxGeometry>
        </mxCell>
        <mxCell id="SKenWi33ArXRwIdqclE3-81" value="1" style="resizable=0;html=1;align=right;verticalAlign=bottom;fillColor=#FAE5C7;strokeColor=#0F8B8D;fontColor=#143642;" parent="SKenWi33ArXRwIdqclE3-80" connectable="0" vertex="1">
          <mxGeometry x="1" relative="1" as="geometry" />
        </mxCell>
        <mxCell id="SKenWi33ArXRwIdqclE3-82" value="" style="endArrow=none;html=1;rounded=0;exitX=0.5;exitY=0;exitDx=0;exitDy=0;entryX=0.5;entryY=1;entryDx=0;entryDy=0;labelBackgroundColor=#DAD2D8;strokeColor=#A8201A;fontColor=#143642;" parent="1" source="1R20_Fz8d9oRuQxPapqD-5" target="SKenWi33ArXRwIdqclE3-74" edge="1">
          <mxGeometry relative="1" as="geometry">
            <mxPoint x="350" y="760" as="sourcePoint" />
            <mxPoint x="620" y="640" as="targetPoint" />
          </mxGeometry>
        </mxCell>
        <mxCell id="SKenWi33ArXRwIdqclE3-83" value="1" style="resizable=0;html=1;align=right;verticalAlign=bottom;fillColor=#FAE5C7;strokeColor=#0F8B8D;fontColor=#143642;" parent="SKenWi33ArXRwIdqclE3-82" connectable="0" vertex="1">
          <mxGeometry x="1" relative="1" as="geometry" />
        </mxCell>
        <mxCell id="SKenWi33ArXRwIdqclE3-84" value="属于" style="shape=rhombus;perimeter=rhombusPerimeter;whiteSpace=wrap;html=1;align=center;glass=0;fillColor=#FAE5C7;strokeColor=#0F8B8D;fontColor=#143642;" parent="1" vertex="1">
          <mxGeometry x="159.55" y="690" width="120" height="60" as="geometry" />
        </mxCell>
        <mxCell id="SKenWi33ArXRwIdqclE3-85" value="" style="endArrow=none;html=1;rounded=0;entryX=1;entryY=0.5;entryDx=0;entryDy=0;exitX=0;exitY=0.5;exitDx=0;exitDy=0;labelBackgroundColor=#DAD2D8;strokeColor=#A8201A;fontColor=#143642;" parent="1" source="1R20_Fz8d9oRuQxPapqD-3" target="SKenWi33ArXRwIdqclE3-84" edge="1">
          <mxGeometry relative="1" as="geometry">
            <mxPoint x="340" y="770" as="sourcePoint" />
            <mxPoint x="500" y="770" as="targetPoint" />
          </mxGeometry>
        </mxCell>
        <mxCell id="SKenWi33ArXRwIdqclE3-86" value="1" style="resizable=0;html=1;align=right;verticalAlign=bottom;fillColor=#FAE5C7;strokeColor=#0F8B8D;fontColor=#143642;" parent="SKenWi33ArXRwIdqclE3-85" connectable="0" vertex="1">
          <mxGeometry x="1" relative="1" as="geometry" />
        </mxCell>
        <mxCell id="SKenWi33ArXRwIdqclE3-92" value="" style="endArrow=none;html=1;rounded=0;entryX=0;entryY=0.5;entryDx=0;entryDy=0;exitX=1;exitY=0.5;exitDx=0;exitDy=0;labelBackgroundColor=#DAD2D8;strokeColor=#A8201A;fontColor=#143642;" parent="1" source="SKenWi33ArXRwIdqclE3-50" target="SKenWi33ArXRwIdqclE3-84" edge="1">
          <mxGeometry relative="1" as="geometry">
            <mxPoint x="159.55" y="850" as="sourcePoint" />
            <mxPoint x="319.55" y="850" as="targetPoint" />
          </mxGeometry>
        </mxCell>
        <mxCell id="SKenWi33ArXRwIdqclE3-93" value="N" style="resizable=0;html=1;align=right;verticalAlign=bottom;fillColor=#FAE5C7;strokeColor=#0F8B8D;fontColor=#143642;" parent="SKenWi33ArXRwIdqclE3-92" connectable="0" vertex="1">
          <mxGeometry x="1" relative="1" as="geometry" />
        </mxCell>
        <mxCell id="SKenWi33ArXRwIdqclE3-97" value="" style="endArrow=none;html=1;rounded=0;exitX=0.5;exitY=0;exitDx=0;exitDy=0;labelBackgroundColor=#DAD2D8;strokeColor=#A8201A;fontColor=#143642;entryX=0.5;entryY=1;entryDx=0;entryDy=0;" parent="1" source="1R20_Fz8d9oRuQxPapqD-11" target="SKenWi33ArXRwIdqclE3-84" edge="1">
          <mxGeometry relative="1" as="geometry">
            <mxPoint x="619.5500000000001" y="740" as="sourcePoint" />
            <mxPoint x="309.55" y="800" as="targetPoint" />
          </mxGeometry>
        </mxCell>
        <mxCell id="SKenWi33ArXRwIdqclE3-98" value="1" style="resizable=0;html=1;align=right;verticalAlign=bottom;fillColor=#FAE5C7;strokeColor=#0F8B8D;fontColor=#143642;" parent="SKenWi33ArXRwIdqclE3-97" connectable="0" vertex="1">
          <mxGeometry x="1" relative="1" as="geometry" />
        </mxCell>
        <mxCell id="djBL_zfnkZg27sY6-a1C-2" value="标注" style="shape=rhombus;perimeter=rhombusPerimeter;whiteSpace=wrap;html=1;align=center;rounded=0;sketch=0;strokeColor=#0F8B8D;fillColor=#FAE5C7;fontColor=#143642;" vertex="1" parent="1">
          <mxGeometry x="590" y="420" width="120" height="60" as="geometry" />
        </mxCell>
        <mxCell id="djBL_zfnkZg27sY6-a1C-6" value="" style="endArrow=none;html=1;rounded=0;strokeColor=#A8201A;fillColor=#FAE5C7;fontColor=#143642;exitX=0.5;exitY=1;exitDx=0;exitDy=0;entryX=0.5;entryY=0;entryDx=0;entryDy=0;" edge="1" parent="1" source="1R20_Fz8d9oRuQxPapqD-4" target="djBL_zfnkZg27sY6-a1C-2">
          <mxGeometry relative="1" as="geometry">
            <mxPoint x="660" y="420" as="sourcePoint" />
            <mxPoint x="740" y="420" as="targetPoint" />
          </mxGeometry>
        </mxCell>
        <mxCell id="djBL_zfnkZg27sY6-a1C-7" value="N" style="resizable=0;html=1;align=right;verticalAlign=bottom;" connectable="0" vertex="1" parent="djBL_zfnkZg27sY6-a1C-6">
          <mxGeometry x="1" relative="1" as="geometry" />
        </mxCell>
        <mxCell id="djBL_zfnkZg27sY6-a1C-10" value="对比" style="shape=rhombus;perimeter=rhombusPerimeter;whiteSpace=wrap;html=1;align=center;rounded=0;sketch=0;strokeColor=#0F8B8D;fillColor=#FAE5C7;fontColor=#143642;" vertex="1" parent="1">
          <mxGeometry x="450" y="510" width="120" height="60" as="geometry" />
        </mxCell>
        <mxCell id="djBL_zfnkZg27sY6-a1C-11" value="" style="endArrow=none;html=1;rounded=0;strokeColor=#A8201A;fillColor=#FAE5C7;fontColor=#143642;entryX=0;entryY=0.5;entryDx=0;entryDy=0;exitX=0.5;exitY=0;exitDx=0;exitDy=0;" edge="1" parent="1" source="1R20_Fz8d9oRuQxPapqD-3" target="djBL_zfnkZg27sY6-a1C-10">
          <mxGeometry relative="1" as="geometry">
            <mxPoint x="440" y="530" as="sourcePoint" />
            <mxPoint x="600" y="530" as="targetPoint" />
          </mxGeometry>
        </mxCell>
        <mxCell id="djBL_zfnkZg27sY6-a1C-12" value="N" style="resizable=0;html=1;align=right;verticalAlign=bottom;" connectable="0" vertex="1" parent="djBL_zfnkZg27sY6-a1C-11">
          <mxGeometry x="1" relative="1" as="geometry" />
        </mxCell>
        <mxCell id="djBL_zfnkZg27sY6-a1C-15" value="" style="endArrow=none;html=1;rounded=0;strokeColor=#A8201A;fillColor=#FAE5C7;fontColor=#143642;entryX=1;entryY=0.5;entryDx=0;entryDy=0;exitX=0;exitY=0.5;exitDx=0;exitDy=0;" edge="1" parent="1" source="SKenWi33ArXRwIdqclE3-58" target="djBL_zfnkZg27sY6-a1C-10">
          <mxGeometry relative="1" as="geometry">
            <mxPoint x="530" y="390" as="sourcePoint" />
            <mxPoint x="640" y="420" as="targetPoint" />
          </mxGeometry>
        </mxCell>
        <mxCell id="djBL_zfnkZg27sY6-a1C-16" value="1" style="resizable=0;html=1;align=right;verticalAlign=bottom;" connectable="0" vertex="1" parent="djBL_zfnkZg27sY6-a1C-15">
          <mxGeometry x="1" relative="1" as="geometry" />
        </mxCell>
        <mxCell id="djBL_zfnkZg27sY6-a1C-17" value="" style="endArrow=none;html=1;rounded=0;strokeColor=#A8201A;fillColor=#FAE5C7;fontColor=#143642;exitX=0.5;exitY=0;exitDx=0;exitDy=0;entryX=0.5;entryY=1;entryDx=0;entryDy=0;" edge="1" parent="1" source="SKenWi33ArXRwIdqclE3-58" target="djBL_zfnkZg27sY6-a1C-2">
          <mxGeometry relative="1" as="geometry">
            <mxPoint x="720" y="510" as="sourcePoint" />
            <mxPoint x="880" y="510" as="targetPoint" />
          </mxGeometry>
        </mxCell>
        <mxCell id="djBL_zfnkZg27sY6-a1C-18" value="1" style="resizable=0;html=1;align=right;verticalAlign=bottom;" connectable="0" vertex="1" parent="djBL_zfnkZg27sY6-a1C-17">
          <mxGeometry x="1" relative="1" as="geometry" />
        </mxCell>
        <mxCell id="djBL_zfnkZg27sY6-a1C-19" value="用户身份" style="shape=ext;margin=3;double=1;whiteSpace=wrap;html=1;align=center;rounded=0;sketch=0;strokeColor=#0F8B8D;fillColor=#FAE5C7;fontColor=#143642;" vertex="1" parent="1">
          <mxGeometry x="335" y="100" width="100" height="40" as="geometry" />
        </mxCell>
        <mxCell id="djBL_zfnkZg27sY6-a1C-20" value="认证类型" style="ellipse;whiteSpace=wrap;html=1;align=center;rounded=0;sketch=0;strokeColor=#0F8B8D;fillColor=#FAE5C7;fontColor=#143642;" vertex="1" parent="1">
          <mxGeometry x="179.55" y="145" width="100" height="40" as="geometry" />
        </mxCell>
        <mxCell id="djBL_zfnkZg27sY6-a1C-21" value="认证者" style="ellipse;whiteSpace=wrap;html=1;align=center;rounded=0;sketch=0;strokeColor=#0F8B8D;fillColor=#FAE5C7;fontColor=#143642;" vertex="1" parent="1">
          <mxGeometry x="179.55" y="100" width="100" height="40" as="geometry" />
        </mxCell>
        <mxCell id="djBL_zfnkZg27sY6-a1C-22" value="凭证" style="ellipse;whiteSpace=wrap;html=1;align=center;rounded=0;sketch=0;strokeColor=#0F8B8D;fillColor=#FAE5C7;fontColor=#143642;" vertex="1" parent="1">
          <mxGeometry x="179.55" y="55" width="100" height="40" as="geometry" />
        </mxCell>
        <mxCell id="djBL_zfnkZg27sY6-a1C-24" value="" style="endArrow=none;html=1;rounded=0;strokeColor=#A8201A;fillColor=#FAE5C7;fontColor=#143642;exitX=1;exitY=0.5;exitDx=0;exitDy=0;entryX=0;entryY=0.5;entryDx=0;entryDy=0;" edge="1" parent="1" source="djBL_zfnkZg27sY6-a1C-20" target="djBL_zfnkZg27sY6-a1C-19">
          <mxGeometry relative="1" as="geometry">
            <mxPoint x="250" y="100" as="sourcePoint" />
            <mxPoint x="330" y="120" as="targetPoint" />
          </mxGeometry>
        </mxCell>
        <mxCell id="djBL_zfnkZg27sY6-a1C-25" value="" style="endArrow=none;html=1;rounded=0;strokeColor=#A8201A;fillColor=#FAE5C7;fontColor=#143642;exitX=1;exitY=0.5;exitDx=0;exitDy=0;entryX=0;entryY=0.5;entryDx=0;entryDy=0;" edge="1" parent="1" source="djBL_zfnkZg27sY6-a1C-21" target="djBL_zfnkZg27sY6-a1C-19">
          <mxGeometry relative="1" as="geometry">
            <mxPoint x="295" y="80" as="sourcePoint" />
            <mxPoint x="310" y="120" as="targetPoint" />
          </mxGeometry>
        </mxCell>
        <mxCell id="djBL_zfnkZg27sY6-a1C-26" value="" style="endArrow=none;html=1;rounded=0;strokeColor=#A8201A;fillColor=#FAE5C7;fontColor=#143642;exitX=1;exitY=0.5;exitDx=0;exitDy=0;entryX=0;entryY=0.5;entryDx=0;entryDy=0;" edge="1" parent="1" source="djBL_zfnkZg27sY6-a1C-22" target="djBL_zfnkZg27sY6-a1C-19">
          <mxGeometry relative="1" as="geometry">
            <mxPoint x="305" y="90" as="sourcePoint" />
            <mxPoint x="320" y="160" as="targetPoint" />
          </mxGeometry>
        </mxCell>
        <mxCell id="djBL_zfnkZg27sY6-a1C-27" value="电话号码" style="ellipse;whiteSpace=wrap;html=1;align=center;rounded=0;sketch=0;strokeColor=#0F8B8D;fillColor=#FAE5C7;fontColor=#143642;" vertex="1" parent="1">
          <mxGeometry x="560" y="120" width="100" height="40" as="geometry" />
        </mxCell>
        <mxCell id="djBL_zfnkZg27sY6-a1C-28" value="昵称" style="ellipse;whiteSpace=wrap;html=1;align=center;rounded=0;sketch=0;strokeColor=#0F8B8D;fillColor=#FAE5C7;fontColor=#143642;" vertex="1" parent="1">
          <mxGeometry x="450" y="120" width="100" height="40" as="geometry" />
        </mxCell>
        <mxCell id="djBL_zfnkZg27sY6-a1C-29" value="邮箱地址" style="ellipse;whiteSpace=wrap;html=1;align=center;rounded=0;sketch=0;strokeColor=#0F8B8D;fillColor=#FAE5C7;fontColor=#143642;" vertex="1" parent="1">
          <mxGeometry x="680" y="210" width="100" height="40" as="geometry" />
        </mxCell>
        <mxCell id="djBL_zfnkZg27sY6-a1C-30" value="头像" style="ellipse;whiteSpace=wrap;html=1;align=center;rounded=0;sketch=0;strokeColor=#0F8B8D;fillColor=#FAE5C7;fontColor=#143642;" vertex="1" parent="1">
          <mxGeometry x="630" y="160" width="100" height="40" as="geometry" />
        </mxCell>
        <mxCell id="djBL_zfnkZg27sY6-a1C-31" value="" style="endArrow=none;html=1;rounded=0;strokeColor=#A8201A;fillColor=#FAE5C7;fontColor=#143642;exitX=0.5;exitY=1;exitDx=0;exitDy=0;entryX=0.5;entryY=0;entryDx=0;entryDy=0;" edge="1" parent="1" source="djBL_zfnkZg27sY6-a1C-28" target="1R20_Fz8d9oRuQxPapqD-1">
          <mxGeometry relative="1" as="geometry">
            <mxPoint x="490" y="70" as="sourcePoint" />
            <mxPoint x="395" y="110" as="targetPoint" />
          </mxGeometry>
        </mxCell>
        <mxCell id="djBL_zfnkZg27sY6-a1C-32" value="" style="endArrow=none;html=1;rounded=0;strokeColor=#A8201A;fillColor=#FAE5C7;fontColor=#143642;exitX=0.5;exitY=1;exitDx=0;exitDy=0;entryX=0.5;entryY=0;entryDx=0;entryDy=0;" edge="1" parent="1" source="djBL_zfnkZg27sY6-a1C-27" target="1R20_Fz8d9oRuQxPapqD-1">
          <mxGeometry relative="1" as="geometry">
            <mxPoint x="620" y="90" as="sourcePoint" />
            <mxPoint x="540" y="180" as="targetPoint" />
          </mxGeometry>
        </mxCell>
        <mxCell id="djBL_zfnkZg27sY6-a1C-33" value="" style="endArrow=none;html=1;rounded=0;strokeColor=#A8201A;fillColor=#FAE5C7;fontColor=#143642;exitX=0;exitY=0.5;exitDx=0;exitDy=0;entryX=0.5;entryY=0;entryDx=0;entryDy=0;" edge="1" parent="1" source="djBL_zfnkZg27sY6-a1C-30" target="1R20_Fz8d9oRuQxPapqD-1">
          <mxGeometry relative="1" as="geometry">
            <mxPoint x="630" y="100" as="sourcePoint" />
            <mxPoint x="550" y="190" as="targetPoint" />
          </mxGeometry>
        </mxCell>
        <mxCell id="djBL_zfnkZg27sY6-a1C-34" value="" style="endArrow=none;html=1;rounded=0;strokeColor=#A8201A;fillColor=#FAE5C7;fontColor=#143642;exitX=0;exitY=0.5;exitDx=0;exitDy=0;entryX=0.5;entryY=0;entryDx=0;entryDy=0;" edge="1" parent="1" source="djBL_zfnkZg27sY6-a1C-29" target="1R20_Fz8d9oRuQxPapqD-1">
          <mxGeometry relative="1" as="geometry">
            <mxPoint x="640" y="190" as="sourcePoint" />
            <mxPoint x="560" y="280" as="targetPoint" />
          </mxGeometry>
        </mxCell>
        <mxCell id="djBL_zfnkZg27sY6-a1C-35" value="内容" style="ellipse;whiteSpace=wrap;html=1;align=center;rounded=0;sketch=0;strokeColor=#0F8B8D;fillColor=#FAE5C7;fontColor=#143642;" vertex="1" parent="1">
          <mxGeometry x="200" y="360" width="100" height="40" as="geometry" />
        </mxCell>
        <mxCell id="djBL_zfnkZg27sY6-a1C-36" value="" style="endArrow=none;html=1;rounded=0;strokeColor=#A8201A;fillColor=#FAE5C7;fontColor=#143642;entryX=1;entryY=0.5;entryDx=0;entryDy=0;" edge="1" parent="1" target="djBL_zfnkZg27sY6-a1C-38">
          <mxGeometry relative="1" as="geometry">
            <mxPoint x="600" y="380" as="sourcePoint" />
            <mxPoint x="630" y="460" as="targetPoint" />
          </mxGeometry>
        </mxCell>
        <mxCell id="djBL_zfnkZg27sY6-a1C-37" value="" style="endArrow=none;html=1;rounded=0;strokeColor=#A8201A;fillColor=#FAE5C7;fontColor=#143642;exitX=1;exitY=0.5;exitDx=0;exitDy=0;entryX=0;entryY=0.5;entryDx=0;entryDy=0;" edge="1" parent="1" source="djBL_zfnkZg27sY6-a1C-35" target="1R20_Fz8d9oRuQxPapqD-16">
          <mxGeometry relative="1" as="geometry">
            <mxPoint x="180" y="420" as="sourcePoint" />
            <mxPoint x="340" y="420" as="targetPoint" />
          </mxGeometry>
        </mxCell>
        <mxCell id="djBL_zfnkZg27sY6-a1C-38" value="路径地址" style="ellipse;whiteSpace=wrap;html=1;align=center;rounded=0;sketch=0;strokeColor=#0F8B8D;fillColor=#FAE5C7;fontColor=#143642;" vertex="1" parent="1">
          <mxGeometry x="480" y="340" width="100" height="40" as="geometry" />
        </mxCell>
        <mxCell id="djBL_zfnkZg27sY6-a1C-39" value="名称" style="ellipse;whiteSpace=wrap;html=1;align=center;rounded=0;sketch=0;strokeColor=#0F8B8D;fillColor=#FAE5C7;fontColor=#143642;" vertex="1" parent="1">
          <mxGeometry x="480" y="380" width="100" height="40" as="geometry" />
        </mxCell>
        <mxCell id="djBL_zfnkZg27sY6-a1C-40" value="" style="endArrow=none;html=1;rounded=0;strokeColor=#A8201A;fillColor=#FAE5C7;fontColor=#143642;entryX=0;entryY=0.5;entryDx=0;entryDy=0;exitX=1;exitY=0.5;exitDx=0;exitDy=0;" edge="1" parent="1" source="djBL_zfnkZg27sY6-a1C-39" target="1R20_Fz8d9oRuQxPapqD-4">
          <mxGeometry relative="1" as="geometry">
            <mxPoint x="630" y="410" as="sourcePoint" />
            <mxPoint x="590" y="380" as="targetPoint" />
          </mxGeometry>
        </mxCell>
        <mxCell id="djBL_zfnkZg27sY6-a1C-41" value="价格" style="ellipse;whiteSpace=wrap;html=1;align=center;rounded=0;sketch=0;strokeColor=#0F8B8D;fillColor=#FAE5C7;fontColor=#143642;" vertex="1" parent="1">
          <mxGeometry x="600" y="584.5" width="100" height="40" as="geometry" />
        </mxCell>
        <mxCell id="djBL_zfnkZg27sY6-a1C-45" value="" style="endArrow=none;html=1;rounded=0;strokeColor=#A8201A;fillColor=#FAE5C7;fontColor=#143642;entryX=0.5;entryY=1;entryDx=0;entryDy=0;exitX=0.5;exitY=0;exitDx=0;exitDy=0;" edge="1" parent="1" source="djBL_zfnkZg27sY6-a1C-41" target="SKenWi33ArXRwIdqclE3-58">
          <mxGeometry relative="1" as="geometry">
            <mxPoint x="690" y="580" as="sourcePoint" />
            <mxPoint x="640" y="570" as="targetPoint" />
          </mxGeometry>
        </mxCell>
        <mxCell id="djBL_zfnkZg27sY6-a1C-46" value="&lt;span style=&quot;border-bottom: 1px dotted&quot;&gt;名字&lt;/span&gt;" style="ellipse;whiteSpace=wrap;html=1;align=center;rounded=0;sketch=0;strokeColor=#0F8B8D;fillColor=#FAE5C7;fontColor=#143642;" vertex="1" parent="1">
          <mxGeometry x="630" y="700" width="100" height="40" as="geometry" />
        </mxCell>
        <mxCell id="djBL_zfnkZg27sY6-a1C-47" value="&lt;span style=&quot;border-bottom: 1px dotted&quot;&gt;地址&lt;/span&gt;" style="ellipse;whiteSpace=wrap;html=1;align=center;rounded=0;sketch=0;strokeColor=#0F8B8D;fillColor=#FAE5C7;fontColor=#143642;" vertex="1" parent="1">
          <mxGeometry x="630" y="745" width="100" height="40" as="geometry" />
        </mxCell>
        <mxCell id="djBL_zfnkZg27sY6-a1C-48" value="&lt;span style=&quot;border-bottom: 1px dotted&quot;&gt;图标&lt;/span&gt;" style="ellipse;whiteSpace=wrap;html=1;align=center;rounded=0;sketch=0;strokeColor=#0F8B8D;fillColor=#FAE5C7;fontColor=#143642;" vertex="1" parent="1">
          <mxGeometry x="630" y="790" width="100" height="40" as="geometry" />
        </mxCell>
        <mxCell id="djBL_zfnkZg27sY6-a1C-49" value="" style="endArrow=none;html=1;rounded=0;strokeColor=#A8201A;fillColor=#FAE5C7;fontColor=#143642;exitX=1;exitY=0.5;exitDx=0;exitDy=0;entryX=0;entryY=0.5;entryDx=0;entryDy=0;" edge="1" parent="1" source="1R20_Fz8d9oRuQxPapqD-5" target="djBL_zfnkZg27sY6-a1C-48">
          <mxGeometry relative="1" as="geometry">
            <mxPoint x="620" y="435" as="sourcePoint" />
            <mxPoint x="620" y="785" as="targetPoint" />
          </mxGeometry>
        </mxCell>
        <mxCell id="djBL_zfnkZg27sY6-a1C-53" value="" style="endArrow=none;html=1;rounded=0;strokeColor=#A8201A;fillColor=#FAE5C7;fontColor=#143642;entryX=0;entryY=0.5;entryDx=0;entryDy=0;exitX=1;exitY=0.5;exitDx=0;exitDy=0;" edge="1" parent="1" source="1R20_Fz8d9oRuQxPapqD-5" target="djBL_zfnkZg27sY6-a1C-46">
          <mxGeometry relative="1" as="geometry">
            <mxPoint x="730" y="645" as="sourcePoint" />
            <mxPoint x="760" y="705" as="targetPoint" />
          </mxGeometry>
        </mxCell>
        <mxCell id="djBL_zfnkZg27sY6-a1C-54" value="" style="endArrow=none;html=1;rounded=0;strokeColor=#A8201A;fillColor=#FAE5C7;fontColor=#143642;entryX=0;entryY=0.5;entryDx=0;entryDy=0;exitX=1;exitY=0.5;exitDx=0;exitDy=0;" edge="1" parent="1" source="1R20_Fz8d9oRuQxPapqD-5" target="djBL_zfnkZg27sY6-a1C-47">
          <mxGeometry relative="1" as="geometry">
            <mxPoint x="740" y="655" as="sourcePoint" />
            <mxPoint x="770" y="715" as="targetPoint" />
          </mxGeometry>
        </mxCell>
        <mxCell id="djBL_zfnkZg27sY6-a1C-55" value="拥有" style="shape=rhombus;perimeter=rhombusPerimeter;whiteSpace=wrap;html=1;align=center;rounded=0;sketch=0;strokeColor=#0F8B8D;fillColor=#FAE5C7;fontColor=#143642;" vertex="1" parent="1">
          <mxGeometry x="159.67999999999998" y="620" width="120" height="60" as="geometry" />
        </mxCell>
        <mxCell id="djBL_zfnkZg27sY6-a1C-56" value="" style="endArrow=none;html=1;rounded=0;strokeColor=#A8201A;fillColor=#FAE5C7;fontColor=#143642;entryX=1;entryY=0.5;entryDx=0;entryDy=0;exitX=0;exitY=0.5;exitDx=0;exitDy=0;" edge="1" parent="1" source="1R20_Fz8d9oRuQxPapqD-3" target="djBL_zfnkZg27sY6-a1C-55">
          <mxGeometry relative="1" as="geometry">
            <mxPoint x="620" y="620" as="sourcePoint" />
            <mxPoint x="770" y="640" as="targetPoint" />
          </mxGeometry>
        </mxCell>
        <mxCell id="djBL_zfnkZg27sY6-a1C-57" value="N" style="resizable=0;html=1;align=right;verticalAlign=bottom;" connectable="0" vertex="1" parent="djBL_zfnkZg27sY6-a1C-56">
          <mxGeometry x="1" relative="1" as="geometry" />
        </mxCell>
        <mxCell id="djBL_zfnkZg27sY6-a1C-58" value="" style="endArrow=none;html=1;rounded=0;strokeColor=#A8201A;fillColor=#FAE5C7;fontColor=#143642;entryX=0;entryY=0.5;entryDx=0;entryDy=0;exitX=1;exitY=0.5;exitDx=0;exitDy=0;" edge="1" parent="1" source="1R20_Fz8d9oRuQxPapqD-9" target="djBL_zfnkZg27sY6-a1C-55">
          <mxGeometry relative="1" as="geometry">
            <mxPoint x="344.68" y="660" as="sourcePoint" />
            <mxPoint x="289.68" y="650" as="targetPoint" />
          </mxGeometry>
        </mxCell>
        <mxCell id="djBL_zfnkZg27sY6-a1C-59" value="N" style="resizable=0;html=1;align=right;verticalAlign=bottom;" connectable="0" vertex="1" parent="djBL_zfnkZg27sY6-a1C-58">
          <mxGeometry x="1" relative="1" as="geometry" />
        </mxCell>
        <mxCell id="djBL_zfnkZg27sY6-a1C-60" value="" style="endArrow=none;html=1;rounded=0;strokeColor=#A8201A;fillColor=#FAE5C7;fontColor=#143642;exitX=0.5;exitY=1;exitDx=0;exitDy=0;entryX=0.5;entryY=0;entryDx=0;entryDy=0;" edge="1" parent="1" source="1R20_Fz8d9oRuQxPapqD-13" target="djBL_zfnkZg27sY6-a1C-55">
          <mxGeometry relative="1" as="geometry">
            <mxPoint x="354.68" y="570" as="sourcePoint" />
            <mxPoint x="159.67999999999998" y="540" as="targetPoint" />
          </mxGeometry>
        </mxCell>
        <mxCell id="djBL_zfnkZg27sY6-a1C-61" value="N" style="resizable=0;html=1;align=right;verticalAlign=bottom;" connectable="0" vertex="1" parent="djBL_zfnkZg27sY6-a1C-60">
          <mxGeometry x="1" relative="1" as="geometry" />
        </mxCell>
        <mxCell id="djBL_zfnkZg27sY6-a1C-62" value="制作" style="shape=rhombus;perimeter=rhombusPerimeter;whiteSpace=wrap;html=1;align=center;rounded=0;sketch=0;strokeColor=#0F8B8D;fillColor=#FAE5C7;fontColor=#143642;" vertex="1" parent="1">
          <mxGeometry x="325" y="740" width="120" height="60" as="geometry" />
        </mxCell>
        <mxCell id="djBL_zfnkZg27sY6-a1C-63" value="" style="endArrow=none;html=1;rounded=0;strokeColor=#A8201A;fillColor=#FAE5C7;fontColor=#143642;exitX=0.5;exitY=1;exitDx=0;exitDy=0;entryX=0.5;entryY=0;entryDx=0;entryDy=0;" edge="1" parent="1" source="1R20_Fz8d9oRuQxPapqD-3" target="djBL_zfnkZg27sY6-a1C-62">
          <mxGeometry relative="1" as="geometry">
            <mxPoint x="270" y="770" as="sourcePoint" />
            <mxPoint x="430" y="770" as="targetPoint" />
          </mxGeometry>
        </mxCell>
        <mxCell id="djBL_zfnkZg27sY6-a1C-64" value="N" style="resizable=0;html=1;align=right;verticalAlign=bottom;" connectable="0" vertex="1" parent="djBL_zfnkZg27sY6-a1C-63">
          <mxGeometry x="1" relative="1" as="geometry" />
        </mxCell>
        <mxCell id="djBL_zfnkZg27sY6-a1C-65" value="" style="endArrow=none;html=1;rounded=0;strokeColor=#A8201A;fillColor=#FAE5C7;fontColor=#143642;entryX=0.5;entryY=1;entryDx=0;entryDy=0;exitX=0.5;exitY=0;exitDx=0;exitDy=0;" edge="1" parent="1" source="1R20_Fz8d9oRuQxPapqD-7" target="djBL_zfnkZg27sY6-a1C-62">
          <mxGeometry relative="1" as="geometry">
            <mxPoint x="480" y="890" as="sourcePoint" />
            <mxPoint x="640" y="890" as="targetPoint" />
          </mxGeometry>
        </mxCell>
        <mxCell id="djBL_zfnkZg27sY6-a1C-66" value="N" style="resizable=0;html=1;align=right;verticalAlign=bottom;" connectable="0" vertex="1" parent="djBL_zfnkZg27sY6-a1C-65">
          <mxGeometry x="1" relative="1" as="geometry" />
        </mxCell>
        <mxCell id="djBL_zfnkZg27sY6-a1C-68" value="属于" style="shape=rhombus;perimeter=rhombusPerimeter;whiteSpace=wrap;html=1;align=center;rounded=0;sketch=0;strokeColor=#0F8B8D;fillColor=#FAE5C7;fontColor=#143642;" vertex="1" parent="1">
          <mxGeometry x="325" y="890" width="120" height="60" as="geometry" />
        </mxCell>
        <mxCell id="djBL_zfnkZg27sY6-a1C-69" value="" style="endArrow=none;html=1;rounded=0;strokeColor=#A8201A;fillColor=#FAE5C7;fontColor=#143642;exitX=1;exitY=0.5;exitDx=0;exitDy=0;entryX=0;entryY=0.5;entryDx=0;entryDy=0;" edge="1" parent="1" source="djBL_zfnkZg27sY6-a1C-156" target="djBL_zfnkZg27sY6-a1C-68">
          <mxGeometry relative="1" as="geometry">
            <mxPoint x="463.5" y="940" as="sourcePoint" />
            <mxPoint x="650" y="990" as="targetPoint" />
          </mxGeometry>
        </mxCell>
        <mxCell id="djBL_zfnkZg27sY6-a1C-70" value="N" style="resizable=0;html=1;align=right;verticalAlign=bottom;" connectable="0" vertex="1" parent="djBL_zfnkZg27sY6-a1C-69">
          <mxGeometry x="1" relative="1" as="geometry" />
        </mxCell>
        <mxCell id="djBL_zfnkZg27sY6-a1C-71" value="" style="endArrow=none;html=1;rounded=0;strokeColor=#A8201A;fillColor=#FAE5C7;fontColor=#143642;exitX=0.5;exitY=1;exitDx=0;exitDy=0;entryX=0.5;entryY=0;entryDx=0;entryDy=0;" edge="1" parent="1" source="1R20_Fz8d9oRuQxPapqD-7" target="djBL_zfnkZg27sY6-a1C-68">
          <mxGeometry relative="1" as="geometry">
            <mxPoint x="473.5" y="920" as="sourcePoint" />
            <mxPoint x="550" y="920" as="targetPoint" />
          </mxGeometry>
        </mxCell>
        <mxCell id="djBL_zfnkZg27sY6-a1C-72" value="N" style="resizable=0;html=1;align=right;verticalAlign=bottom;" connectable="0" vertex="1" parent="djBL_zfnkZg27sY6-a1C-71">
          <mxGeometry x="1" relative="1" as="geometry" />
        </mxCell>
        <mxCell id="djBL_zfnkZg27sY6-a1C-156" value="员工类型" style="shape=ext;margin=3;double=1;whiteSpace=wrap;html=1;align=center;rounded=0;sketch=0;strokeColor=#0F8B8D;fillColor=#FAE5C7;fontColor=#143642;" vertex="1" parent="1">
          <mxGeometry x="169.68" y="900" width="100" height="40" as="geometry" />
        </mxCell>
        <mxCell id="djBL_zfnkZg27sY6-a1C-157" value="" style="endArrow=none;html=1;rounded=0;strokeColor=#A8201A;fillColor=#FAE5C7;fontColor=#143642;entryX=0.5;entryY=0;entryDx=0;entryDy=0;" edge="1" parent="1" source="djBL_zfnkZg27sY6-a1C-19" target="SKenWi33ArXRwIdqclE3-1">
          <mxGeometry relative="1" as="geometry">
            <mxPoint x="180" y="200" as="sourcePoint" />
            <mxPoint x="340" y="200" as="targetPoint" />
          </mxGeometry>
        </mxCell>
        <mxCell id="djBL_zfnkZg27sY6-a1C-158" value="N" style="resizable=0;html=1;align=right;verticalAlign=bottom;" connectable="0" vertex="1" parent="djBL_zfnkZg27sY6-a1C-157">
          <mxGeometry x="1" relative="1" as="geometry" />
        </mxCell>
      </root>
    </mxGraphModel>
  </diagram>
</mxfile>
